<?xml version="1.0" encoding="utf-8"?>
<!-- Generator: Adobe Illustrator 21.1.0, SVG Export Plug-In . SVG Version: 6.00 Build 0)  -->
<svg version="1.1" id="Layer_1" xmlns="http://www.w3.org/2000/svg" xmlns:xlink="http://www.w3.org/1999/xlink" x="0px" y="0px"
	 viewBox="0 0 16 16" style="enable-background:new 0 0 16 16;" xml:space="preserve">
<style type="text/css">
	.st0{fill:#008CDB;}
</style>
<g>
	<path class="st0" d="M7.8,9.5C7.4,9.3,6.9,9.3,6.5,9.4c0,0.8-0.3,1.9,0.2,2.6c0,0,0,0,0,0c0.5-0.3,0.7-1.2,0.9-1.7
		C7.4,10,6.9,10,6.6,10.1l0,0c0.3-0.3,0.9-0.2,1.1,0.2c0.1-0.3,0.2-0.5,0.2-0.8C7.8,9.5,7.8,9.5,7.8,9.5C7.7,9.4,7.8,9.5,7.8,9.5
		L7.8,9.5z"/>
	<path class="st0" d="M6.5,9.4c0.5-0.2,1-0.2,1.3,0.2C8,9,8.5,8.9,8.7,8.4c0.5,0.5,0.9,0.9,1.5,1.3C9.3,8.9,8.5,8.1,7.7,7.2
		c0.6-0.3,1.6-0.7,1.8-1.3C9.2,6.5,8.1,6.8,7.6,7.1C7.2,6.6,6.2,6,6.2,5.3C6.2,6,7,6.7,7.5,7.2c-1,0.6-2.1,1.1-3.2,1.6
		C5,8.6,5.6,8.3,6.2,8c0,0.2,0.2,0.4,0.3,0.6C6.6,8.8,6.5,9.1,6.5,9.4"/>
	<path class="st0" d="M15.2,5.4c-1-0.1-2,0-3,0.3C11,6,9,6.4,8.1,7.4C8.3,8,9.5,8.7,10,8.9c0,0,1.7,0.6,1.6,0.1c0,0,0-0.1-0.1-0.1
		c0.7,0.2,1.6,1,2.4,0.6c-0.8-0.7-1.8-1.3-2.8-1.6c-0.4-0.2-0.7-0.1-1.2-0.1c-0.2,0-1.1-0.2-1.3,0c0,0,0,0,0,0
		c0.2-0.2,1.3-0.1,1.5-0.1c0.8,0,1.8-0.1,2.4-0.6c-0.4,0-0.8,0.1-1.1,0.1l0,0l0,0c1.4-0.4,3-0.8,4.1-1.7C15.4,5.4,15.3,5.4,15.2,5.4
		C15,5.4,15.3,5.4,15.2,5.4L15.2,5.4z M4.7,8C5.3,8,6.7,7.7,7,7.2C6.5,6,4.7,5,3.7,4.3C2.8,3.7,1.7,3.2,0.5,3C1.2,4.3,2.7,5.2,3.9,6
		c-0.3-0.2-0.7-0.4-1-0.5c0.4,0.6,1.3,1,1.9,1.3C5,6.9,6.2,7.1,6.4,7.4c0,0,0,0,0,0c-0.1-0.2-0.8-0.2-1-0.3c-0.3-0.1-0.7-0.4-1-0.4
		c-1.2,0-2.5,0.2-3.5,0.6C1.4,8,2.6,7.6,3.3,7.6c0,0-0.1,0.1-0.1,0.1C2.9,8.1,4.7,8,4.7,8C4.8,8,4.6,8,4.7,8L4.7,8z"/>
	<path class="st0" d="M11.5,7.2c0.1,0,0.4-0.1,0.2-0.1C11.8,7.1,11.5,7.2,11.5,7.2C11.5,7.2,11.5,7.2,11.5,7.2L11.5,7.2L11.5,7.2z
		 M4.7,6.8L4.7,6.8L4.7,6.8z"/>
</g>
</svg>
